<mxfile host="app.diagrams.net" modified="2021-07-01T13:57:12.664Z" agent="5.0 (Windows NT 10.0; Win64; x64) AppleWebKit/537.36 (KHTML, like Gecko) Chrome/91.0.4472.114 Safari/537.36" etag="Vw64i_YlBL5_jeMf27vA" version="14.8.3" type="github">
  <diagram id="btPWcRDVc_d9yWO6lVPe" name="Page-1">
    <mxGraphModel dx="1422" dy="762" grid="1" gridSize="10" guides="1" tooltips="1" connect="1" arrows="1" fold="1" page="1" pageScale="1" pageWidth="827" pageHeight="1169" math="0" shadow="0">
      <root>
        <mxCell id="0" />
        <mxCell id="1" parent="0" />
        <mxCell id="czItVGTc25ou93Q1OVgc-1" value="" style="ellipse;whiteSpace=wrap;html=1;aspect=fixed;" vertex="1" parent="1">
          <mxGeometry x="360" y="220" width="80" height="80" as="geometry" />
        </mxCell>
        <mxCell id="czItVGTc25ou93Q1OVgc-2" value="" style="ellipse;whiteSpace=wrap;html=1;aspect=fixed;" vertex="1" parent="1">
          <mxGeometry x="160" y="360" width="80" height="80" as="geometry" />
        </mxCell>
        <mxCell id="czItVGTc25ou93Q1OVgc-3" value="" style="ellipse;whiteSpace=wrap;html=1;aspect=fixed;" vertex="1" parent="1">
          <mxGeometry x="560" y="360" width="80" height="80" as="geometry" />
        </mxCell>
        <mxCell id="czItVGTc25ou93Q1OVgc-4" value="&lt;font style=&quot;font-size: 18px&quot;&gt;创建&lt;/font&gt;" style="text;html=1;strokeColor=none;fillColor=none;align=center;verticalAlign=middle;whiteSpace=wrap;rounded=0;" vertex="1" parent="1">
          <mxGeometry x="380" y="250" width="40" height="20" as="geometry" />
        </mxCell>
        <mxCell id="czItVGTc25ou93Q1OVgc-5" value="&lt;span style=&quot;font-size: 18px&quot;&gt;传输&lt;/span&gt;" style="text;html=1;strokeColor=none;fillColor=none;align=center;verticalAlign=middle;whiteSpace=wrap;rounded=0;" vertex="1" parent="1">
          <mxGeometry x="580" y="390" width="40" height="20" as="geometry" />
        </mxCell>
        <mxCell id="czItVGTc25ou93Q1OVgc-6" value="&lt;span style=&quot;font-size: 18px&quot;&gt;销毁&lt;/span&gt;" style="text;html=1;strokeColor=none;fillColor=none;align=center;verticalAlign=middle;whiteSpace=wrap;rounded=0;" vertex="1" parent="1">
          <mxGeometry x="180" y="390" width="40" height="20" as="geometry" />
        </mxCell>
        <mxCell id="czItVGTc25ou93Q1OVgc-7" value="" style="ellipse;whiteSpace=wrap;html=1;aspect=fixed;" vertex="1" parent="1">
          <mxGeometry x="240" y="560" width="80" height="80" as="geometry" />
        </mxCell>
        <mxCell id="czItVGTc25ou93Q1OVgc-10" value="" style="ellipse;whiteSpace=wrap;html=1;aspect=fixed;" vertex="1" parent="1">
          <mxGeometry x="480" y="560" width="80" height="80" as="geometry" />
        </mxCell>
        <mxCell id="czItVGTc25ou93Q1OVgc-12" value="&lt;span style=&quot;font-size: 18px&quot;&gt;使用&lt;/span&gt;" style="text;html=1;strokeColor=none;fillColor=none;align=center;verticalAlign=middle;whiteSpace=wrap;rounded=0;" vertex="1" parent="1">
          <mxGeometry x="260" y="590" width="40" height="20" as="geometry" />
        </mxCell>
        <mxCell id="czItVGTc25ou93Q1OVgc-13" value="&lt;span style=&quot;font-size: 18px&quot;&gt;存储&lt;/span&gt;" style="text;html=1;strokeColor=none;fillColor=none;align=center;verticalAlign=middle;whiteSpace=wrap;rounded=0;" vertex="1" parent="1">
          <mxGeometry x="500" y="590" width="40" height="20" as="geometry" />
        </mxCell>
        <mxCell id="czItVGTc25ou93Q1OVgc-14" value="&lt;font style=&quot;font-size: 28px&quot;&gt;数据生命周期&lt;/font&gt;" style="text;html=1;strokeColor=none;fillColor=none;align=center;verticalAlign=middle;whiteSpace=wrap;rounded=0;" vertex="1" parent="1">
          <mxGeometry x="310" y="380" width="180" height="150" as="geometry" />
        </mxCell>
        <mxCell id="czItVGTc25ou93Q1OVgc-17" value="" style="endArrow=none;html=1;exitX=1;exitY=0;exitDx=0;exitDy=0;entryX=0.038;entryY=0.725;entryDx=0;entryDy=0;entryPerimeter=0;" edge="1" parent="1" source="czItVGTc25ou93Q1OVgc-2" target="czItVGTc25ou93Q1OVgc-1">
          <mxGeometry width="50" height="50" relative="1" as="geometry">
            <mxPoint x="260" y="360" as="sourcePoint" />
            <mxPoint x="310" y="310" as="targetPoint" />
          </mxGeometry>
        </mxCell>
        <mxCell id="czItVGTc25ou93Q1OVgc-18" value="" style="endArrow=none;html=1;exitX=1;exitY=0;exitDx=0;exitDy=0;entryX=0;entryY=0;entryDx=0;entryDy=0;" edge="1" parent="1" target="czItVGTc25ou93Q1OVgc-3">
          <mxGeometry width="50" height="50" relative="1" as="geometry">
            <mxPoint x="440.00427124746216" y="269.99572875253784" as="sourcePoint" />
            <mxPoint x="574.76" y="176.28" as="targetPoint" />
          </mxGeometry>
        </mxCell>
        <mxCell id="czItVGTc25ou93Q1OVgc-19" value="" style="endArrow=none;html=1;exitX=0;exitY=0;exitDx=0;exitDy=0;entryX=0.038;entryY=0.725;entryDx=0;entryDy=0;entryPerimeter=0;" edge="1" parent="1" source="czItVGTc25ou93Q1OVgc-7">
          <mxGeometry width="50" height="50" relative="1" as="geometry">
            <mxPoint x="70.00427124746213" y="533.7157287525379" as="sourcePoint" />
            <mxPoint x="204.75999999999996" y="440" as="targetPoint" />
          </mxGeometry>
        </mxCell>
        <mxCell id="czItVGTc25ou93Q1OVgc-20" value="" style="endArrow=none;html=1;entryX=0;entryY=0.5;entryDx=0;entryDy=0;" edge="1" parent="1" target="czItVGTc25ou93Q1OVgc-10">
          <mxGeometry width="50" height="50" relative="1" as="geometry">
            <mxPoint x="320" y="600" as="sourcePoint" />
            <mxPoint x="470" y="610" as="targetPoint" />
          </mxGeometry>
        </mxCell>
        <mxCell id="czItVGTc25ou93Q1OVgc-21" value="" style="endArrow=none;html=1;exitX=1;exitY=0;exitDx=0;exitDy=0;entryX=0.5;entryY=1;entryDx=0;entryDy=0;" edge="1" parent="1" target="czItVGTc25ou93Q1OVgc-3">
          <mxGeometry width="50" height="50" relative="1" as="geometry">
            <mxPoint x="560.0042712474622" y="598.7157287525379" as="sourcePoint" />
            <mxPoint x="694.76" y="505" as="targetPoint" />
          </mxGeometry>
        </mxCell>
      </root>
    </mxGraphModel>
  </diagram>
</mxfile>
